<?xml version="1.0" encoding="utf-8"?>
<!-- Svg Vector Icons : http://www.onlinewebfonts.com/icon -->
<!DOCTYPE svg PUBLIC "-//W3C//DTD SVG 1.1//EN" "http://www.w3.org/Graphics/SVG/1.1/DTD/svg11.dtd">
<svg version="1.1" xmlns="http://www.w3.org/2000/svg" xmlns:xlink="http://www.w3.org/1999/xlink" x="0px" y="0px" viewBox="0 0 256 256" enable-background="new 0 0 256 256" xml:space="preserve">
<metadata> Svg Vector Icons : http://www.onlinewebfonts.com/icon </metadata>
<g><g><g><g><path fill="#000000" d="M183.4,151.3c4.3,0,8-0.7,11.2-2c3.2-1.3,5.8-3.1,7.8-5.3c2.1-2.2,3.6-4.6,4.6-7.4c1-2.8,1.5-5.6,1.5-8.5c0-3.8-0.6-7-1.9-9.7s-2.9-5-5-6.9c-2.1-1.9-4.3-3.4-6.6-4.6l-6.7-3.4c-2.9-1.3-5.1-2.3-6.6-3.2c-1.5-0.9-2.3-1.9-2.3-3c0-1.8,0.7-2.9,2-3.4c1.3-0.5,2.3-0.7,2.8-0.7c4.5,0,8.1,1.5,10.8,4.6c1.3,0.9,2.4,1.3,3.5,1.1c1.3,0,2.2-0.6,3-1.9l5.1-8.1c1.3-1.8,1.1-3.5-0.5-5.1c-5.6-5.6-12.8-8.4-21.6-8.4c-7.2,0-13.1,2.1-17.7,6.3c-4.6,4.2-6.9,9.6-6.9,16c0,3.8,0.6,6.9,1.9,9.4c1.3,2.5,2.9,4.7,4.9,6.5c2,1.8,4.1,3.3,6.5,4.5c2.3,1.2,4.6,2.2,6.7,3.1c3.2,1.4,5.6,2.7,7.2,3.8c1.5,1.1,2.3,2.3,2.3,3.8c0,3.1-2.1,4.6-6.2,4.6c-4.9,0-9-1.9-12.4-5.7c-0.7-0.9-1.8-1.3-3.2-1.3c-1.6,0-2.7,0.6-3.2,1.9l-5.4,8.4c-1.1,1.8-1,3.5,0.3,5.1C165.4,148.2,173.5,151.3,183.4,151.3z M129.2,151.3c4.3,0,8.1-0.7,11.3-2c3.2-1.3,5.9-3.1,7.9-5.3c2.1-2.2,3.6-4.6,4.6-7.4c1-2.8,1.5-5.6,1.5-8.5c0-3.8-0.7-7-2-9.7c-1.3-2.7-3-5-5-6.9c-2-1.9-4.2-3.4-6.6-4.6c-2.4-1.2-4.7-2.3-6.9-3.4c-2.7-1.3-4.9-2.3-6.5-3.2s-2.4-1.9-2.4-3c0-1.8,0.7-2.9,2-3.4c1.3-0.5,2.4-0.7,3.1-0.7c4.5,0,8.1,1.5,10.8,4.6c0.9,1.1,2.1,1.4,3.5,1.1c1.1,0,2.1-0.6,3-1.9l5.1-8.1c1.3-1.8,1.1-3.5-0.5-5.1c-5.6-5.6-12.8-8.4-21.6-8.4c-7.2,0-13.1,2.1-17.7,6.3c-4.6,4.2-6.9,9.6-6.9,16c0,3.8,0.6,6.9,1.9,9.4c1.3,2.5,2.9,4.7,4.9,6.5c2,1.8,4.1,3.3,6.3,4.5c2.2,1.2,4.5,2.2,6.6,3.1c3.4,1.4,5.9,2.7,7.4,3.8c1.5,1.1,2.3,2.3,2.3,3.8c0,3.1-2.1,4.6-6.2,4.6c-5,0-9.2-1.9-12.4-5.7c-0.7-0.9-1.9-1.3-3.5-1.3c-1.4,0-2.4,0.6-3,1.9l-5.7,8.4c-1.1,2-0.9,3.7,0.5,5.1C111.1,148.2,119.1,151.3,129.2,151.3z M98.7,133.8c0.5-1.1,0.5-2.2,0-3.2c-0.4-1.1-1.1-1.8-2.2-2.2l-8.9-4c-1.1-0.5-2.2-0.5-3.2,0c-1.3,0.5-2,1.3-2.2,2.4c-0.4,0.9-1.2,2.2-2.4,4c-1.3,1.8-3.2,2.7-5.7,2.7c-3.4,0-6.2-1.9-8.4-5.5c-2.2-3.7-3.2-8.5-3.2-14.4c0-5.9,1.1-10.8,3.2-14.6c2.2-3.8,4.9-5.7,8.4-5.7c2.2,0,3.9,0.7,5.1,2.2c1.3,1.4,2.2,2.9,3,4.3c0.5,1.1,1.3,1.8,2.4,2.2c1.1,0.4,2.1,0.4,3,0l8.9-4c1.3-0.5,2-1.3,2.2-2.4c0.4-1.3,0.3-2.3-0.3-3.2c-5.2-11.1-13.3-16.7-24.3-16.7c-9.2,0-16.6,3.5-22.3,10.5s-8.5,16.2-8.5,27.5s2.8,20.4,8.5,27.4c5.7,6.9,13.1,10.4,22.3,10.4C85.2,151.3,93.3,145.5,98.7,133.8z M237.9,14.3c2.3,0,4.3,0.8,5.8,2.3c1.5,1.5,2.3,3.5,2.3,5.8v169.4c0,1.6-0.5,3.2-1.5,4.6c-1,1.4-2.2,2.4-3.6,3l-109.5,41.8c-0.7,0.4-1.7,0.5-3,0.5c-1.3,0-2.2-0.2-3-0.5L15.4,199.3c-1.6-0.5-2.9-1.5-3.9-3c-1-1.4-1.5-3-1.5-4.6V22.4c0-2.3,0.8-4.3,2.4-5.8c1.6-1.5,3.5-2.3,5.7-2.3H237.9L237.9,14.3z"/></g></g><g></g><g></g><g></g><g></g><g></g><g></g><g></g><g></g><g></g><g></g><g></g><g></g><g></g><g></g><g></g></g></g>
</svg>