<?xml version="1.0" encoding="utf-8"?>
<!-- Svg Vector Icons : http://www.onlinewebfonts.com/icon -->
<!DOCTYPE svg PUBLIC "-//W3C//DTD SVG 1.1//EN" "http://www.w3.org/Graphics/SVG/1.1/DTD/svg11.dtd">
<svg version="1.1" xmlns="http://www.w3.org/2000/svg" xmlns:xlink="http://www.w3.org/1999/xlink" x="0px" y="0px" viewBox="0 0 256 256" enable-background="new 0 0 256 256" xml:space="preserve">
<metadata> Svg Vector Icons : http://www.onlinewebfonts.com/icon </metadata>
<g><g><path fill="#000000" d="M61.9,236.3h-46V89.1h46V236.3z M37.8,70.7h-0.3C20.8,70.7,10,59.5,10,45.2c0-14.5,11.1-25.6,28.1-25.6c17,0,27.4,11,27.7,25.5C65.8,59.4,55.1,70.7,37.8,70.7z M246,236.3h-52.2v-76.2c0-19.9-8.1-33.5-26.1-33.5c-13.7,0-21.4,9.2-24.9,18c-1.3,3.2-1.1,7.6-1.1,12v79.7H90c0,0,0.7-135,0-147.2h51.7v23.1c3.1-10.1,19.6-24.5,45.9-24.5c32.7,0,58.4,21.2,58.4,66.8V236.3z"/></g></g>
</svg>