<svg xmlns="http://www.w3.org/2000/svg" width="1200" height="800" viewBox="0 0 1200 800" fill="none">
  <defs>
    <linearGradient id="bg" x1="0" y1="0" x2="1200" y2="800" gradientUnits="userSpaceOnUse">
      <stop stop-color="#0b0e14"/>
      <stop offset="1" stop-color="#07080b"/>
    </linearGradient>
    <linearGradient id="stroke" x1="140" y1="120" x2="1080" y2="680" gradientUnits="userSpaceOnUse">
      <stop stop-color="#00F5FF" stop-opacity=".32"/>
      <stop offset=".5" stop-color="#FFB86B" stop-opacity=".18"/>
      <stop offset="1" stop-color="#FF3DFF" stop-opacity=".22"/>
    </linearGradient>
  </defs>

  <rect width="1200" height="800" fill="url(#bg)"/>
  <rect x="120" y="90" width="960" height="620" rx="36" fill="#0b0e13" stroke="url(#stroke)" stroke-width="2"/>

  <rect x="150" y="120" width="900" height="56" rx="18" fill="#0f141b"/>
  <circle cx="190" cy="148" r="7" fill="#ff5f56"/>
  <circle cx="214" cy="148" r="7" fill="#ffbd2e"/>
  <circle cx="238" cy="148" r="7" fill="#27c93f"/>
  <rect x="310" y="138" width="420" height="20" rx="10" fill="#ffffff" fill-opacity=".08"/>
  <rect x="760" y="138" width="140" height="20" rx="10" fill="#ffffff" fill-opacity=".06"/>
  <rect x="910" y="138" width="120" height="20" rx="10" fill="#ffffff" fill-opacity=".06"/>

  <rect x="170" y="210" width="460" height="44" rx="14" fill="#ffffff" fill-opacity=".10"/>
  <rect x="170" y="268" width="320" height="18" rx="9" fill="#ffffff" fill-opacity=".07"/>
  <rect x="170" y="296" width="350" height="18" rx="9" fill="#ffffff" fill-opacity=".06"/>
  <rect x="170" y="324" width="290" height="18" rx="9" fill="#ffffff" fill-opacity=".06"/>

  <rect x="170" y="372" width="160" height="44" rx="22" fill="#7CFF6B" fill-opacity=".12" stroke="#7CFF6B" stroke-opacity=".28"/>
  <rect x="340" y="372" width="140" height="44" rx="22" fill="#ffffff" fill-opacity=".06" stroke="#ffffff" stroke-opacity=".14"/>

  <rect x="640" y="210" width="390" height="420" rx="28" fill="#0f141b" stroke="#ffffff" stroke-opacity=".10"/>
  <rect x="670" y="246" width="320" height="22" rx="11" fill="#ffffff" fill-opacity=".08"/>
  <rect x="670" y="286" width="240" height="14" rx="7" fill="#ffffff" fill-opacity=".06"/>
  <rect x="670" y="310" width="290" height="14" rx="7" fill="#ffffff" fill-opacity=".06"/>
  <rect x="670" y="344" width="330" height="120" rx="18" fill="#ffffff" fill-opacity=".06"/>
  <rect x="670" y="478" width="330" height="26" rx="13" fill="#ffffff" fill-opacity=".07"/>
  <rect x="670" y="520" width="180" height="40" rx="20" fill="#00F5FF" fill-opacity=".14" stroke="#00F5FF" stroke-opacity=".30"/>
</svg>
