<svg xmlns="http://www.w3.org/2000/svg" width="1200" height="700" viewBox="0 0 1200 700">
  <defs>
    <linearGradient id="g" x1="0" y1="0" x2="1" y2="1">
      <stop offset="0" stop-color="#FFB86B" stop-opacity="0.85"/>
      <stop offset="1" stop-color="#7CFF6B" stop-opacity="0.75"/>
    </linearGradient>
    <radialGradient id="r" cx="65%" cy="40%" r="70%">
      <stop offset="0" stop-color="#7CFF6B" stop-opacity="0.25"/>
      <stop offset="1" stop-color="#000000" stop-opacity="0"/>
    </radialGradient>
    <filter id="blur">
      <feGaussianBlur stdDeviation="18"/>
    </filter>
    <pattern id="grid" width="40" height="40" patternUnits="userSpaceOnUse">
      <path d="M 40 0 L 0 0 0 40" fill="none" stroke="#2a3342" stroke-opacity="0.35" stroke-width="1"/>
    </pattern>
  </defs>
  <rect width="1200" height="700" fill="#07080b"/>
  <rect width="1200" height="700" fill="url(#grid)"/>
  <circle cx="820" cy="250" r="280" fill="url(#r)"/>
  <circle cx="390" cy="470" r="230" fill="url(#r)"/>
  <path d="M 303 363 L 617 126 L 438 528 L 678 302 L 700 357 L 127 370" fill="none" stroke="url(#g)" stroke-width="10" stroke-linecap="round" stroke-linejoin="round" opacity="0.9"/>
  <path d="M 303 363 L 617 126 L 438 528 L 678 302 L 700 357 L 127 370" fill="none" stroke="url(#g)" stroke-width="2" stroke-linecap="round" stroke-linejoin="round" opacity="0.9"/>
  <g filter="url(#blur)" opacity="0.55">
    <path d="M 303 363 L 617 126 L 438 528 L 678 302 L 700 357 L 127 370" fill="none" stroke="url(#g)" stroke-width="24" stroke-linecap="round" stroke-linejoin="round"/>
  </g>
  <text x="70" y="590" font-family="ui-sans-serif, system-ui" font-size="54" fill="#e7eefc" letter-spacing="-1" font-weight="700">Kinetic Landing</text>
  <text x="70" y="635" font-family="ui-sans-serif, system-ui" font-size="22" fill="#9fb0c9" letter-spacing="0.2">Interactive build • UI Motion • WebGL</text>
</svg>