<?xml version="1.0" encoding="utf-8"?>
<!-- Svg Vector Icons : http://www.onlinewebfonts.com/icon -->
<!DOCTYPE svg PUBLIC "-//W3C//DTD SVG 1.1//EN" "http://www.w3.org/Graphics/SVG/1.1/DTD/svg11.dtd">
<svg version="1.1" xmlns="http://www.w3.org/2000/svg" xmlns:xlink="http://www.w3.org/1999/xlink" x="0px" y="0px" viewBox="0 0 256 256" enable-background="new 0 0 256 256" xml:space="preserve">
<metadata> Svg Vector Icons : http://www.onlinewebfonts.com/icon </metadata>
<g> <path fill="#000000" d="M174,10H82.4C41.8,10,10,41.7,10,82.1v91.6c0.1,39.9,32.4,72.3,72.4,72.3H174c40.4,0,72-31.8,72-72.3V82.1 C246,41.7,214.4,10,174,10z M219.8,173.7c0,25.8-20.1,46.1-45.8,46.1H82.4c-25.9,0-46.1-20.2-46.1-46.1V82.1 c0-25.7,20.3-45.8,46.1-45.8H174c25-0.3,45.5,19.8,45.8,44.9c0,0.3,0,0.7,0,1V173.7z"/> <path fill="#000000" d="M128,75.6c-28.9,0-52.4,23.5-52.4,52.4c0,28.9,23.5,52.4,52.4,52.4c28.9,0,52.4-23.5,52.4-52.4 C180.4,99.1,156.9,75.6,128,75.6L128,75.6z M128,154.2c-14.7,0-26.2-11.5-26.2-26.2c0-14.7,11.5-26.2,26.2-26.2 c14.7,0,26.2,11.5,26.2,26.2C154.2,142.7,142.7,154.2,128,154.2z"/> <path fill="#000000" d="M173.9,69c0,7.2,5.9,13.1,13.1,13.1s13.1-5.9,13.1-13.1c0,0,0,0,0,0c0-7.2-5.9-13.1-13.1-13.1 S173.9,61.7,173.9,69C173.9,69,173.9,69,173.9,69z"/></g>
</svg>