<svg viewBox="0 0 40 40" fill="#000000" xmlns="http://www.w3.org/2000/svg" id="Javascript-Fill--Streamline-Remix-Fill" height="40" width="40">
  <desc>
    Javascript Fill Streamline Icon: https://streamlinehq.com
  </desc>
  <path d="M10 5C7.238583333333333 5 5 7.238583333333333 5 10v20c0 2.7615000000000003 2.2385833333333336 5 5 5h20c2.7615000000000003 0 5 -2.2385 5 -5V10c0 -2.761416666666667 -2.2385 -5 -5 -5H10Zm12.224 21.758333333333333c1.1978333333333333 0.9655000000000001 2.3955 1.4421666666666666 3.5933333333333337 1.43 0.7333333333333334 0 1.2955 -0.1345 1.6866666666666668 -0.4033333333333333 0.37883333333333336 -0.25666666666666665 0.5683333333333334 -0.6233333333333334 0.5683333333333334 -1.1 0 -0.48883333333333334 -0.1895 -0.9045 -0.5683333333333334 -1.2466666666666668 -0.39116666666666666 -0.3421666666666667 -1.1305 -0.6845 -2.2183333333333333 -1.0266666666666666 -1.3078333333333334 -0.37883333333333336 -2.3161666666666667 -0.8678333333333335 -3.025 -1.4666666666666668 -0.6966666666666667 -0.5988333333333333 -1.0511666666666668 -1.4361666666666668 -1.0633333333333335 -2.5116666666666667 0 -1.0145000000000002 0.44000000000000006 -1.8638333333333335 1.32 -2.5483333333333333 0.8555 -0.6845 1.9495 -1.0266666666666666 3.2816666666666667 -1.0266666666666666 1.8578333333333334 0 3.3488333333333338 0.45216666666666666 4.473333333333334 1.3566666666666667l-1.2833333333333334 1.9983333333333335c-0.45216666666666666 -0.35450000000000004 -0.9716666666666667 -0.6111666666666667 -1.5583333333333336 -0.77 -0.5866666666666667 -0.18333333333333335 -1.1121666666666667 -0.275 -1.5766666666666667 -0.275 -0.6355 0 -1.1428333333333334 0.11616666666666667 -1.5216666666666667 0.34833333333333333 -0.37883333333333336 0.2321666666666667 -0.5683333333333334 0.5378333333333334 -0.5683333333333334 0.9166666666666667 0 0.4155 0.2321666666666667 0.77 0.6966666666666667 1.0633333333333335 0.4645 0.2811666666666667 1.2588333333333332 0.5928333333333334 2.3833333333333333 0.9350000000000002 1.3566666666666667 0.4033333333333333 2.322166666666667 0.9411666666666667 2.896666666666667 1.6133333333333333s0.8616666666666667 1.5278333333333334 0.8616666666666667 2.566666666666667c0 1.0633333333333335 -0.40950000000000003 1.98 -1.2283333333333333 2.75 -0.8066666666666666 0.7578333333333334 -1.98 1.155 -3.5200000000000005 1.1916666666666667 -2.0166666666666666 0 -3.7033333333333336 -0.605 -5.0600000000000005 -1.815l1.43 -1.98Zm-9.217250000000002 1.0633333333333335c0.39111666666666667 0.2445 0.8616666666666667 0.3666666666666667 1.4116666666666666 0.3666666666666667 0.57445 0 1.0511166666666667 -0.165 1.43 -0.495 0.3789 -0.3421666666666667 0.5683333333333334 -0.9350000000000002 0.5683333333333334 -1.7783333333333333v-8.836666666666666h2.4750833333333335v9.313333333333334c-0.03666666666666667 1.4421666666666666 -0.4523333333333333 2.4811666666666667 -1.2466666666666668 3.116666666666667 -0.4523333333333333 0.37883333333333336 -0.9473333333333334 0.6478333333333334 -1.4850833333333333 0.8066666666666666 -0.5377666666666667 0.15883333333333333 -1.0572166666666667 0.2383333333333333 -1.5583333333333336 0.2383333333333333 -0.9166666666666667 0 -1.7294333333333334 -0.15883333333333333 -2.4383333333333335 -0.4766666666666666 -0.7577666666666667 -0.3421666666666667 -1.3933333333333333 -0.9471666666666667 -1.9066666666666665 -1.815l1.7233333333333334 -1.4116666666666666c0.31778333333333336 0.42783333333333334 0.66 0.7516666666666667 1.0266666666666666 0.9716666666666667Z" stroke-width="1.6667"></path>
</svg>