<?xml version="1.0" encoding="UTF-8"?>
<svg xmlns="http://www.w3.org/2000/svg" width="512" height="512" viewBox="0 0 64 64">
  <path fill="#030104" d="M22 30c4 0 7-3.2 7-7.2S26 16 22 16s-7 3.2-7 6.8S18 30 22 30zm20 0c4 0 7-3.2 7-7.2S46 16 42 16s-7 3.2-7 6.8S38 30 42 30z"/>
  <path fill="#030104" d="M10 52c0-7.2 6.2-13 14-13s14 5.8 14 13v2H10v-2zm26 2v-2c0-3.8-1.5-7.3-4-10.1 2.2-1.2 4.7-1.9 7.4-1.9 7.8 0 14 5.8 14 13v2H36z"/>
  <path fill="#030104" d="M32 36c4.4 0 8-3.6 8-8.2S36.4 20 32 20s-8 3.6-8 7.8S27.6 36 32 36z"/>
</svg>
