<?xml version="1.0" encoding="utf-8"?>
<!-- Svg Vector Icons : http://www.onlinewebfonts.com/icon -->
<!DOCTYPE svg PUBLIC "-//W3C//DTD SVG 1.1//EN" "http://www.w3.org/Graphics/SVG/1.1/DTD/svg11.dtd">
<svg version="1.1" xmlns="http://www.w3.org/2000/svg" xmlns:xlink="http://www.w3.org/1999/xlink" x="0px" y="0px" viewBox="0 0 256 256" enable-background="new 0 0 256 256" xml:space="preserve">
<metadata> Svg Vector Icons : http://www.onlinewebfonts.com/icon </metadata>
<g><g><g><path fill="#000000" d="M120.6,11c-13,3.1-26.3,16.1-35.5,34.7C82,51.9,78.6,60.1,79,60.5c0.5,0.5,15.8,2.8,24.7,3.8c12.3,1.3,36.4,1.3,48.4,0c11.4-1.2,24.8-3.4,24.8-4.1c0-1.3-4-10.5-7-16.2C156.6,18.5,138.6,6.6,120.6,11z"/><path fill="#000000" d="M90.8,16.1c-17.5,5.9-34.3,16.4-47.1,29.5c-3.1,3.1-3.4,3.7-2.4,4.1c6,2.4,26.7,8.8,28.7,8.8c0.7,0,1.6-1.5,3-5c5.4-13.6,13.7-27,21.8-35.4c2.4-2.4,4.1-4.4,3.8-4.4C98.2,13.6,94.8,14.7,90.8,16.1z"/><path fill="#000000" d="M161.9,18.9c8,8.4,15.7,20.9,21.1,34.5c1.4,3.6,2.2,5,3,5c1.9,0,22.9-6.5,28.6-8.8c1-0.4,0.5-1.1-3-4.7c-12.2-12.5-28.7-22.8-45.3-28.5C156,12.9,156.1,12.9,161.9,18.9z"/><path fill="#000000" d="M30.4,61.9c-11.8,17.7-18.1,36-20,58.1l-0.4,3.8h24.8h24.7l0.3-2.6c0.2-1.4,0.5-5.7,0.7-9.5c0.6-12,3.9-32.3,6.9-41.8l1.1-3.6L66,65.7c-7-1.8-17.9-5.1-23.7-7.3c-3.6-1.3-6.9-2.4-7.3-2.4C34.6,56,32.6,58.7,30.4,61.9z"/><path fill="#000000" d="M214.2,58.2c-4.7,1.8-20.2,6.5-25.2,7.7l-1.6,0.4l1.6,5.9c3.3,11.6,6.7,34.1,6.7,44.4c0,2.5,0.2,5.1,0.4,5.9l0.4,1.4h24.7h24.7l-0.3-4.1c-1.3-15.9-5.2-30-12-44.1c-4.2-8.4-11.6-19.6-12.9-19.5C220.1,56.1,217.3,57,214.2,58.2z"/><path fill="#000000" d="M74.8,72.8c-3.4,12.6-6,28.7-6.5,42.4l-0.4,8.7h60h60v-5.3c0-6.5-1.4-20-3-28.9c-1.1-6.3-4.5-20.8-5-21.2c-0.1-0.1-3.2,0.3-6.8,1c-31.1,5.6-64.1,5.3-95.3-1C76.2,68,76.1,68.2,74.8,72.8z"/><path fill="#000000" d="M10.4,136c1.9,22.2,8.2,40.4,20.1,58.2c3.3,5,4.2,5.9,5.2,5.7c0.7-0.2,5.6-1.8,11-3.6c5.3-1.8,12.5-4.1,15.8-5l6.1-1.6l-1.1-3.5c-3-9.5-6.3-29.8-6.9-41.8c-0.2-3.8-0.5-8.1-0.7-9.6l-0.3-2.5H34.8H10L10.4,136z"/><path fill="#000000" d="M68.2,141.3c0.7,13.5,3.1,28.8,6.6,41.9c1.3,4.6,1.4,4.8,2.8,4.4c3-0.7,20.6-3.3,27.7-4c9.4-1,36-1,45.4,0c7.1,0.7,24.8,3.3,27.7,4c1.5,0.4,1.6,0.2,3.4-6.8c3.4-13.1,6.2-32,6.2-43.3v-5.3h-60H67.8L68.2,141.3z"/><path fill="#000000" d="M196.1,134.2c-0.2,1.1-0.4,5.2-0.6,9.1c-0.6,12.6-3.9,32.5-7,42.6l-1.1,3.7l9.1,2.6c5,1.5,12.5,3.8,16.5,5.2c4.1,1.5,7.6,2.7,7.9,2.7c0.8,0,6.4-8,9.8-14.2c8.2-14.4,13.3-31.6,14.9-49.8l0.4-3.7h-24.8h-24.7L196.1,134.2z"/><path fill="#000000" d="M113.5,191c-13.4,0.8-34.6,3.8-34.6,4.8c0,1,3.7,9.7,6.3,14.9c9.3,18.5,22.5,31.2,35.6,34.3c17.9,4.2,35.6-7.6,48.8-32.4c2.9-5.5,7.4-15.7,7.4-16.8c0-1.2-20.8-4.1-36.3-5C128.9,190.3,126.1,190.3,113.5,191z"/><path fill="#000000" d="M64.2,198.9c-4.2,1.2-19.7,6.2-22.6,7.3c-1.5,0.5-1.4,0.6,2.7,4.8c12.3,12.5,28.7,22.9,45.3,28.6c10.5,3.6,10.3,3.6,4.5-2.4c-8.2-8.5-15.6-20.6-21.1-34.6C70.7,196.9,70.9,197,64.2,198.9z"/><path fill="#000000" d="M184.5,198.6c-5.5,15.5-13.5,29.1-22.5,38.5c-5.9,6.1-6,6,4.5,2.4c16.6-5.7,33-16,45.3-28.5c3.6-3.6,4-4.2,3-4.7c-6.7-2.7-26.6-8.8-28.7-8.8C185.4,197.6,184.7,198.1,184.5,198.6z"/></g></g></g>
</svg>