<svg xmlns="http://www.w3.org/2000/svg" width="1200" height="800" viewBox="0 0 1200 800" fill="none">
  <defs>
    <linearGradient id="bg" x1="0" y1="0" x2="1200" y2="800" gradientUnits="userSpaceOnUse">
      <stop stop-color="#0c0f14"/>
      <stop offset="1" stop-color="#07080b"/>
    </linearGradient>
    <linearGradient id="stroke" x1="160" y1="120" x2="1040" y2="680" gradientUnits="userSpaceOnUse">
      <stop stop-color="#7CFF6B" stop-opacity=".25"/>
      <stop offset=".55" stop-color="#00F5FF" stop-opacity=".26"/>
      <stop offset="1" stop-color="#FF3DFF" stop-opacity=".18"/>
    </linearGradient>
  </defs>

  <rect width="1200" height="800" fill="url(#bg)"/>
  <rect x="120" y="90" width="960" height="620" rx="36" fill="#0b0e13" stroke="url(#stroke)" stroke-width="2"/>

  <!-- top bar -->
  <rect x="150" y="120" width="900" height="56" rx="18" fill="#0f141b"/>
  <rect x="190" y="138" width="240" height="20" rx="10" fill="#ffffff" fill-opacity=".08"/>
  <rect x="860" y="138" width="170" height="20" rx="10" fill="#ffffff" fill-opacity=".06"/>

  <!-- content blocks -->
  <rect x="170" y="210" width="420" height="44" rx="14" fill="#ffffff" fill-opacity=".10"/>
  <rect x="170" y="268" width="360" height="18" rx="9" fill="#ffffff" fill-opacity=".07"/>
  <rect x="170" y="296" width="310" height="18" rx="9" fill="#ffffff" fill-opacity=".06"/>
  <rect x="170" y="324" width="340" height="18" rx="9" fill="#ffffff" fill-opacity=".06"/>

  <rect x="170" y="372" width="160" height="44" rx="22" fill="#7CFF6B" fill-opacity=".12" stroke="#7CFF6B" stroke-opacity=".28"/>
  <rect x="340" y="372" width="140" height="44" rx="22" fill="#ffffff" fill-opacity=".06" stroke="#ffffff" stroke-opacity=".14"/>

  <!-- right preview -->
  <rect x="640" y="210" width="390" height="420" rx="28" fill="#0f141b" stroke="#ffffff" stroke-opacity=".10"/>
  <rect x="670" y="246" width="280" height="22" rx="11" fill="#ffffff" fill-opacity=".08"/>
  <rect x="670" y="286" width="330" height="180" rx="18" fill="#ffffff" fill-opacity=".06"/>
  <rect x="670" y="486" width="220" height="14" rx="7" fill="#ffffff" fill-opacity=".06"/>
  <rect x="670" y="510" width="260" height="14" rx="7" fill="#ffffff" fill-opacity=".06"/>
  <rect x="670" y="540" width="190" height="40" rx="20" fill="#00F5FF" fill-opacity=".12" stroke="#00F5FF" stroke-opacity=".26"/>
</svg>
